<svg id="svg" version="1.1" xmlns="http://www.w3.org/2000/svg" style="display: block;" viewBox="0 0 512 512"><path d="M0 0 C168.96 0 337.92 0 512 0 C512 168.96 512 337.92 512 512 C343.04 512 174.08 512 0 512 C0 343.04 0 174.08 0 0 Z " transform="translate(0,0)" style="fill: #4FFA00;"/><path d="M0 0 C78.21 0 156.42 0 237 0 C237 168.96 237 337.92 237 512 C153.51 512 70.02 512 -16 512 C-9.40703518 504.30820771 -9.40703518 504.30820771 -6.1875 501.25 C-2.26388223 497.38583099 1.13838491 493.21309695 4.58203125 488.921875 C7.12600117 485.8477401 9.78145979 482.91855081 12.5 480 C17.58474487 474.52757747 22.32362157 468.82644618 27 463 C28.3938092 461.2900148 29.78969095 459.58171712 31.1875 457.875 C31.92613281 456.97136719 32.66476562 456.06773437 33.42578125 455.13671875 C35.37421232 452.75824612 37.33228932 450.38791551 39.29296875 448.01953125 C46.66193218 439.11328993 53.93987781 430.15332425 61 421 C61.60070312 420.22140625 62.20140625 419.4428125 62.8203125 418.640625 C71.56053262 407.28878533 80.11142926 395.82260646 88.44091797 384.16650391 C89.97807142 382.03047201 91.53425182 379.90984296 93.09765625 377.79296875 C108.36792113 357.05357489 122.04165333 335.24329592 135 313 C135.59941406 311.97551758 136.19882812 310.95103516 136.81640625 309.89550781 C166.22208667 259.38823491 185.71852768 207.06983391 171 148.56469727 C164.5550552 124.37727261 154.18812675 101.0012655 139 81 C138.15575646 79.85974025 137.3120248 78.71910136 136.46875 77.578125 C132.02987715 71.63345954 127.4443067 66.06249818 122 61 C117 56 117 56 115.25390625 54.11328125 C85.4360041 22.71711585 41.78252834 7.45421169 0 1 C0 0.67 0 0.34 0 0 Z " transform="translate(275,0)" style="fill: #FEFEFE;"/><path d="M0 0 C78.21 0 156.42 0 237 0 C232.95048467 2.02475767 229.51883074 2.63467245 225.125 3.25 C181.43953335 10.10516165 137.4372413 32.53632345 109 67 C108.30261719 67.82113281 107.60523437 68.64226562 106.88671875 69.48828125 C77.28777571 104.81275386 60.96675475 148.29082124 60.75 194.3125 C60.7406543 195.57602295 60.73130859 196.8395459 60.72167969 198.14135742 C60.85679446 237.75337065 80.79120311 276.98952072 100.41455078 310.296875 C101.94384102 312.90425127 103.44216021 315.52707862 104.93359375 318.15625 C117.96337569 340.91979339 132.82419886 362.86949046 148.45947266 383.92236328 C150.16388571 386.22102495 151.85402997 388.52979079 153.54296875 390.83984375 C159.8006645 399.38716532 166.12096177 407.87631765 172.62939453 416.23486328 C174.20581774 418.26506275 175.77276652 420.30242232 177.33984375 422.33984375 C183.55135432 430.39668598 189.85721221 438.3287639 196.48046875 446.05078125 C201.13279037 451.49652206 205.62752886 457.07236194 210.13671875 462.63671875 C218.48681618 472.90568956 227.08309315 482.95196532 235.97265625 492.7578125 C239.98840991 497.19912772 243.93793105 501.69490457 247.75 506.3125 C250.04084734 509.12910913 250.04084734 509.12910913 253 512 C169.51 512 86.02 512 0 512 C0 343.04 0 174.08 0 0 Z " transform="translate(0,0)" style="fill: #FEFEFE;"/><path d="M0 0 C2.2377614 0.01610603 4.47371788 0.00003257 6.71142578 -0.01904297 C16.41479509 -0.03335237 25.30492119 1.07633968 34.73876953 3.39111328 C35.52928711 3.58447266 36.31980469 3.77783203 37.13427734 3.97705078 C52.52796404 8.03323767 66.93428658 14.96015495 79.73876953 24.39111328 C80.55216797 24.98150391 81.36556641 25.57189453 82.20361328 26.18017578 C98.15367054 38.33013836 110.85345061 53.4168005 119.73876953 71.39111328 C120.24021484 72.38369141 120.74166016 73.37626953 121.25830078 74.39892578 C125.34630254 82.82331422 128.310196 91.37132927 130.73876953 100.39111328 C131.06103516 101.56416016 131.38330078 102.73720703 131.71533203 103.94580078 C136.23425656 123.58411768 135.24065106 145.08705896 129.73876953 164.39111328 C129.55685059 165.07915039 129.37493164 165.7671875 129.1875 166.47607422 C120.42693132 199.56111732 97.79904505 227.30306999 68.61572266 244.65332031 C59.00974921 250.22031905 49.41970336 254.35484782 38.73876953 257.39111328 C37.73587891 257.68630859 36.73298828 257.98150391 35.69970703 258.28564453 C9.96706757 265.32570627 -17.32639912 263.53297242 -42.26123047 254.39111328 C-43.28087891 254.02244141 -44.30052734 253.65376953 -45.35107422 253.27392578 C-71.44650577 243.11597256 -93.06665758 224.77179822 -108.26123047 201.39111328 C-108.80908203 200.58931641 -109.35693359 199.78751953 -109.92138672 198.96142578 C-127.07378004 172.52387021 -132.9062926 136.28723355 -126.63623047 105.64111328 C-120.94352649 80.22384775 -109.25471878 58.19540003 -91.26123047 39.39111328 C-90.16101563 38.17875 -90.16101563 38.17875 -89.03857422 36.94189453 C-75.71719504 22.77541952 -57.47517737 12.24073314 -39.13623047 6.01611328 C-38.46930176 5.78947998 -37.80237305 5.56284668 -37.11523438 5.3293457 C-24.80468447 1.42968497 -12.83401965 -0.10940476 0 0 Z " transform="translate(253.26123046875,61.60888671875)" style="fill: #FEFEFE;"/><path d="M0 0 C1.25073303 -0.00209976 1.25073303 -0.00209976 2.5267334 -0.00424194 C17.49586236 0.01632496 31.33199445 1.73698968 45.875 5.4375 C47.45535476 5.80370286 49.03606169 6.1683907 50.6171875 6.53125 C87.59935027 15.47199265 124.66998879 37.99897285 148.875 67.4375 C149.57109375 68.25734375 150.2671875 69.0771875 150.984375 69.921875 C180.58822199 105.24232693 196.9082516 148.72966984 197.125 194.75 C197.1343457 196.01352295 197.14369141 197.2770459 197.15332031 198.57885742 C197.01820554 238.19087065 177.08379689 277.42702072 157.46044922 310.734375 C155.93115898 313.34175127 154.43283979 315.96457862 152.94140625 318.59375 C139.90791193 341.36377906 125.04213972 363.31868429 109.40234375 384.37744141 C107.73728738 386.62324474 106.08666248 388.879221 104.4375 391.13671875 C96.72396495 401.67908013 88.8688512 412.10623543 80.875 422.4375 C80.39434082 423.05995605 79.91368164 423.68241211 79.41845703 424.32373047 C74.09714575 431.20267792 68.65305537 437.94340776 62.99511719 444.54833984 C59.71989166 448.3887797 56.58959926 452.32181415 53.5 456.3125 C45.48309404 466.63769708 36.77865885 476.36360079 27.9921875 486.03515625 C25.66698601 488.67353064 23.45677116 491.38696912 21.25 494.125 C17.6926151 498.51905208 13.95910527 502.53626512 9.875 506.4375 C8.91418073 507.39334093 7.95559916 508.35144027 7 509.3125 C3.875 512.4375 3.875 512.4375 1.125 512.75 C-5.10972457 512.15050725 -8.33410973 507.20237367 -12.1796875 502.69921875 C-14.24355514 500.29966179 -16.36657636 497.96284577 -18.5 495.625 C-21.62922827 492.16219918 -24.63000349 488.63070997 -27.5625 485 C-30.65648714 481.17294273 -33.8533055 477.49469127 -37.1875 473.875 C-40.98225244 469.74747696 -44.53326829 465.5087949 -47.99609375 461.1015625 C-50.47941808 457.99398967 -53.04499209 454.96480898 -55.625 451.9375 C-75.60632381 428.42946238 -94.2700073 403.5880234 -112.125 378.4375 C-112.68928711 377.64520996 -113.25357422 376.85291992 -113.83496094 376.03662109 C-128.25670664 355.75528714 -141.51251277 334.88887238 -154.125 313.4375 C-154.69250977 312.47972656 -155.26001953 311.52195312 -155.84472656 310.53515625 C-185.55532969 260.22078196 -204.70045494 207.47315011 -190.17553711 149.10327148 C-183.77585984 124.90389639 -173.21602386 101.47168418 -158.125 81.4375 C-157.50794189 80.6026709 -157.50794189 80.6026709 -156.87841797 79.75097656 C-152.45152877 73.76234661 -147.99115551 67.97901148 -142.56640625 62.84375 C-140.95327053 61.33466225 -140.95327053 61.33466225 -139.1875 58.9375 C-136.20329949 55.32028726 -132.70142362 52.45602503 -129.125 49.4375 C-128.24714844 48.67179687 -127.36929688 47.90609375 -126.46484375 47.1171875 C-98.7492267 23.3183131 -65.68944991 9.59538421 -30.125 2.4375 C-29.23103516 2.24841064 -28.33707031 2.05932129 -27.41601562 1.86450195 C-18.30157634 0.11432232 -9.24884875 -0.00148902 0 0 Z M-36.125 20.4375 C-37.07826172 20.63102051 -38.03152344 20.82454102 -39.01367188 21.02392578 C-51.70550769 23.68181023 -63.39141884 27.96908814 -75.125 33.4375 C-75.78790039 33.74478027 -76.45080078 34.05206055 -77.13378906 34.36865234 C-88.60605723 39.74609429 -98.79429453 46.31595296 -108.875 53.9375 C-109.58438721 54.47133301 -110.29377441 55.00516602 -111.0246582 55.55517578 C-115.20146744 58.76298876 -118.9901656 62.14697251 -122.63964844 65.94555664 C-124.125 67.4375 -124.125 67.4375 -126.625 69.375 C-156.06230775 93.6607789 -174.43665864 137.98883324 -178.375 175.1875 C-181.61409463 210.34751462 -173.08927353 239.69670736 -158.125 271.4375 C-157.71378906 272.3150293 -157.30257812 273.19255859 -156.87890625 274.09667969 C-132.37013222 325.94679916 -97.08838009 374.37388379 -60.86791992 418.61865234 C-57.31792991 422.95615341 -53.82544823 427.33296483 -50.375 431.75 C-43.3201333 440.76629818 -36.04578041 449.57296168 -28.56884766 458.24169922 C-25.50474949 461.80135991 -22.50913559 465.40424401 -19.5625 469.0625 C-15.44366369 474.14340027 -11.06770111 478.93319376 -6.60546875 483.7109375 C-4.3305679 486.21153718 -2.20346983 488.77279508 -0.125 491.4375 C3.47221356 489.9420292 5.50597221 487.91043692 8.0625 485 C8.85527344 484.09765625 9.64804687 483.1953125 10.46484375 482.265625 C13.48753606 478.71873808 16.4283643 475.11105147 19.359375 471.48828125 C22.30425654 467.91692646 25.33238262 464.42554955 28.375 460.9375 C33.66404919 454.86556229 38.81381761 448.70133959 43.875 442.4375 C44.89265561 441.1896362 45.91092745 439.9422748 46.9296875 438.6953125 C53.50730929 430.63750554 60.00916155 422.52687573 66.40332031 414.32275391 C67.9912032 412.28864116 69.58533763 410.25951586 71.1796875 408.23046875 C156.43085637 300.0028842 156.43085637 300.0028842 179.35327148 169.10961914 C174.65223137 134.08881284 156.92473151 96.66036722 130.875 72.4375 C125.875 67.4375 125.875 67.4375 124.19921875 65.5859375 C112.66405028 53.26682554 97.81039269 44.08640481 82.875 36.4375 C82.26092285 36.12087402 81.6468457 35.80424805 81.01416016 35.47802734 C63.79128529 26.71791968 45.74516888 22.20075412 26.875 18.4375 C26.13193604 18.25646729 25.38887207 18.07543457 24.62329102 17.88891602 C20.75072252 17.25283365 16.93430857 17.25474208 13.015625 17.234375 C12.15298035 17.22867493 11.29033569 17.22297485 10.40155029 17.21710205 C8.57256283 17.2076694 6.7435585 17.20112497 4.91455078 17.19726562 C2.17578357 17.18767778 -0.56219374 17.15668859 -3.30078125 17.125 C-14.58851614 17.05672715 -25.09889359 18.04340287 -36.125 20.4375 Z " transform="translate(255.125,-0.4375)" style="fill: #010301;"/><path d="M0 0 C38.24919279 -0.89860208 76.06560634 12.59755836 104.08984375 38.8359375 C105.28867187 39.98642578 105.28867187 39.98642578 106.51171875 41.16015625 C107.3934375 41.97871094 108.27515625 42.79726562 109.18359375 43.640625 C127.34502391 61.0068513 139.37374373 83.31109613 146.76171875 107.16015625 C147.13139771 108.33336426 147.13139771 108.33336426 147.50854492 109.53027344 C151.05241511 121.47138876 151.86490778 133.54285277 151.82739258 145.91870117 C151.82422583 148.09279339 151.84783413 150.26552677 151.87304688 152.43945312 C151.91614977 162.0555401 150.75390053 170.80194884 148.51171875 180.16015625 C148.33858154 180.93093506 148.16544434 181.70171387 147.98706055 182.49584961 C142.16292967 207.86090971 129.46833309 230.43817802 111.51171875 249.16015625 C110.64289063 250.10375 109.7740625 251.04734375 108.87890625 252.01953125 C84.05125305 278.46121927 47.133041 294.11117134 11.05859375 295.34765625 C-23.36486858 296.04014408 -55.74145278 286.88714796 -83.48828125 266.16015625 C-84.30167969 265.57105469 -85.11507812 264.98195313 -85.953125 264.375 C-111.3595782 245.14049716 -128.64330458 218.56716918 -137.48828125 188.16015625 C-137.80410156 187.12117187 -138.11992187 186.0821875 -138.4453125 185.01171875 C-141.77125082 173.5757338 -142.8172904 162.35763127 -142.74902344 150.49755859 C-142.73832888 148.29496528 -142.7489673 146.09319333 -142.76171875 143.890625 C-142.77713058 130.85485784 -141.32334998 118.46443628 -137.42578125 105.97265625 C-137.12196533 104.99361328 -136.81814941 104.01457031 -136.50512695 103.00585938 C-124.01484871 64.19891385 -96.57714973 33.83247097 -60.67236328 15.21875 C-41.50950268 5.47682246 -21.42241327 0.98355985 0 0 Z M-31.48828125 21.16015625 C-32.17905762 21.36914551 -32.86983398 21.57813477 -33.58154297 21.79345703 C-65.78184465 31.54337827 -93.21983905 53.38012781 -109.73828125 82.72265625 C-110.67178036 84.52654467 -111.58820062 86.33936277 -112.48828125 88.16015625 C-112.98972656 89.15273437 -113.49117187 90.1453125 -114.0078125 91.16796875 C-118.09581426 99.59235719 -121.05970772 108.14037224 -123.48828125 117.16015625 C-123.97167969 118.91972656 -123.97167969 118.91972656 -124.46484375 120.71484375 C-128.98376828 140.35316065 -127.99016277 161.85610193 -122.48828125 181.16015625 C-122.3063623 181.84819336 -122.12444336 182.53623047 -121.93701172 183.24511719 C-112.90652087 217.34954465 -89.41098651 244.99193945 -59.328125 262.62890625 C-29.02899347 279.78726394 6.49181672 283.44035191 39.94921875 274.28515625 C42.14497041 273.60283155 44.33304661 272.8951937 46.51171875 272.16015625 C47.57390625 271.80179688 48.63609375 271.4434375 49.73046875 271.07421875 C77.08769053 261.18046621 99.71389551 242.4690941 115.51171875 218.16015625 C116.05957031 217.35835937 116.60742188 216.5565625 117.171875 215.73046875 C134.32426832 189.29291318 140.15678088 153.05627651 133.88671875 122.41015625 C128.19401477 96.99289072 116.50520706 74.96444299 98.51171875 56.16015625 C97.77824219 55.35191406 97.04476562 54.54367188 96.2890625 53.7109375 C76.87821597 33.06868501 46.1372412 18.33126178 17.78979492 16.9831543 C-7.17375184 16.29611327 -7.17375184 16.29611327 -31.48828125 21.16015625 Z " transform="translate(251.48828125,44.83984375)" style="fill: #010301;"/><path d="M0 0 C1.13824219 -0.03738281 2.27648437 -0.07476562 3.44921875 -0.11328125 C11.13104369 -0.19265717 17.00711807 0.89006417 23.375 5.375 C32.53110737 15.08319603 28.375 28.74055241 28.375 41.375 C52.795 41.375 77.215 41.375 102.375 41.375 C102.375 32.465 102.375 23.555 102.375 14.375 C105.59982113 7.92535774 108.29461036 3.77306951 115.078125 0.99243164 C120.18224701 -0.37962667 125.50260155 -0.09380227 130.75 -0.0625 C132.52117187 -0.0924707 132.52117187 -0.0924707 134.328125 -0.12304688 C141.43022664 -0.11909248 147.29199861 0.48899614 153.375 4.375 C158.13123268 9.25318736 159.63181098 13.12579258 159.5703125 19.890625 C159.56064453 21.76621094 159.56064453 21.76621094 159.55078125 23.6796875 C159.52564453 25.63261719 159.52564453 25.63261719 159.5 27.625 C159.49097656 28.94242188 159.48195313 30.25984375 159.47265625 31.6171875 C159.44908533 34.86997462 159.41618022 38.12239589 159.375 41.375 C159.98408203 41.35904785 160.59316406 41.3430957 161.22070312 41.32666016 C162.02443359 41.31425293 162.82816406 41.3018457 163.65625 41.2890625 C164.84831055 41.26513428 164.84831055 41.26513428 166.06445312 41.24072266 C169.36103697 41.4323035 171.63563139 42.5944104 174.375 44.375 C175.92086876 47.46673752 175.66859521 49.96929552 175.375 53.375 C173.15636971 56.28217073 171.85555071 57.21481643 168.375 58.375 C166.81381572 58.44240865 165.2499748 58.46014456 163.6875 58.4375 C162.47513672 58.42396484 162.47513672 58.42396484 161.23828125 58.41015625 C160.62339844 58.39855469 160.00851562 58.38695312 159.375 58.375 C159.39594727 59.15101563 159.41689453 59.92703125 159.43847656 60.7265625 C159.52212759 64.27590748 159.57381629 67.82504435 159.625 71.375 C159.65851563 72.59574219 159.69203125 73.81648438 159.7265625 75.07421875 C159.80536823 82.36374832 159.3871756 87.21711877 155.375 93.375 C149.48271218 99.26728782 142.93636868 99.64689479 134.99609375 99.69726562 C133.84238281 99.69404297 132.68867188 99.69082031 131.5 99.6875 C130.35402344 99.70361328 129.20804688 99.71972656 128.02734375 99.73632812 C120.10159542 99.74088839 113.88784957 99.26334298 107.5625 94.0625 C98.29734077 82.67959009 102.375 75.8679088 102.375 58.375 C77.955 58.375 53.535 58.375 28.375 58.375 C28.375 67.285 28.375 76.195 28.375 85.375 C23.86905548 94.38688904 23.86905548 94.38688904 20.3125 96.3125 C19.64089844 96.69277344 18.96929687 97.07304687 18.27734375 97.46484375 C12.62588656 100.16872368 6.82793148 99.59814191 0.6875 99.625 C-0.47201172 99.645625 -1.63152344 99.66625 -2.82617188 99.6875 C-10.8286194 99.72389544 -17.04663186 99.3172138 -23.4375 94.0625 C-27.42195338 89.16731441 -29.00819489 85.19864224 -28.91796875 78.8828125 C-28.90830078 77.68398437 -28.89863281 76.48515625 -28.88867188 75.25 C-28.86353516 74.0125 -28.83839844 72.775 -28.8125 71.5 C-28.79219727 69.60894531 -28.79219727 69.60894531 -28.77148438 67.6796875 C-28.73623435 64.57768546 -28.68695504 61.47656466 -28.625 58.375 C-29.23408203 58.39095215 -29.84316406 58.4069043 -30.47070312 58.42333984 C-31.27443359 58.43574707 -32.07816406 58.4481543 -32.90625 58.4609375 C-33.70095703 58.47688965 -34.49566406 58.4928418 -35.31445312 58.50927734 C-38.61103697 58.3176965 -40.88563139 57.1555896 -43.625 55.375 C-45.17086876 52.28326248 -44.91859521 49.78070448 -44.625 46.375 C-42.40636971 43.46782927 -41.10555071 42.53518357 -37.625 41.375 C-36.06381572 41.30759135 -34.4999748 41.28985544 -32.9375 41.3125 C-31.72513672 41.32603516 -31.72513672 41.32603516 -30.48828125 41.33984375 C-29.87339844 41.35144531 -29.25851563 41.36304688 -28.625 41.375 C-28.64594727 40.59898437 -28.66689453 39.82296875 -28.68847656 39.0234375 C-28.77212759 35.47409252 -28.82381629 31.92495565 -28.875 28.375 C-28.90851563 27.15425781 -28.94203125 25.93351562 -28.9765625 24.67578125 C-29.05508946 17.41203771 -28.7352511 12.46133336 -24.625 6.375 C-22.625 4.53515625 -22.625 4.53515625 -20.625 3.4375 C-19.965 3.05722656 -19.305 2.67695313 -18.625 2.28515625 C-12.71871895 -0.40266306 -6.36581057 0.077718 0 0 Z " transform="translate(194.625,142.625)" style="fill: #040303;"/><path d="M0 0 C1.02996094 -0.00128906 2.05992187 -0.00257813 3.12109375 -0.00390625 C4.74724609 0.00189453 4.74724609 0.00189453 6.40625 0.0078125 C7.49035156 0.00394531 8.57445312 0.00007812 9.69140625 -0.00390625 C10.72136719 -0.00261719 11.75132812 -0.00132812 12.8125 0 C14.24045898 0.00169189 14.24045898 0.00169189 15.69726562 0.00341797 C17.90625 0.1328125 17.90625 0.1328125 18.90625 1.1328125 C19.00560148 3.15231459 19.03424508 5.17532165 19.03564453 7.19726562 C19.03879669 8.49531128 19.04194885 9.79335693 19.04519653 11.1307373 C19.04340675 12.55851271 19.0413558 13.98628781 19.0390625 15.4140625 C19.03973558 16.86755388 19.04070564 18.32104514 19.04196167 19.77453613 C19.04343846 22.82447377 19.0412847 25.87438216 19.03662109 28.92431641 C19.0309238 32.84211809 19.03420291 36.75985128 19.04019356 40.67765045 C19.04379969 43.68012004 19.04266035 46.68257327 19.04006577 49.68504333 C19.03939664 51.12999988 19.04022442 52.57495789 19.04254532 54.01991272 C19.04507265 56.03606133 19.04054052 58.05221512 19.03564453 60.06835938 C19.03484894 61.21784058 19.03405334 62.36732178 19.03323364 63.55163574 C18.90625 66.1328125 18.90625 66.1328125 17.90625 67.1328125 C16.21066274 67.23213403 14.51099253 67.26361257 12.8125 67.265625 C11.78253906 67.26691406 10.75257813 67.26820313 9.69140625 67.26953125 C8.06525391 67.26373047 8.06525391 67.26373047 6.40625 67.2578125 C5.32214844 67.26167969 4.23804688 67.26554687 3.12109375 67.26953125 C2.09113281 67.26824219 1.06117188 67.26695312 0 67.265625 C-0.95197266 67.26449707 -1.90394531 67.26336914 -2.88476562 67.26220703 C-5.09375 67.1328125 -5.09375 67.1328125 -6.09375 66.1328125 C-6.19310148 64.11331041 -6.22174508 62.09030335 -6.22314453 60.06835938 C-6.22629669 58.77031372 -6.22944885 57.47226807 -6.23269653 56.1348877 C-6.23090675 54.70711229 -6.2288558 53.27933719 -6.2265625 51.8515625 C-6.22723558 50.39807112 -6.22820564 48.94457986 -6.22946167 47.49108887 C-6.23093846 44.44115123 -6.2287847 41.39124284 -6.22412109 38.34130859 C-6.2184238 34.42350691 -6.22170291 30.50577372 -6.22769356 26.58797455 C-6.23129969 23.58550496 -6.23016035 20.58305173 -6.22756577 17.58058167 C-6.22689664 16.13562512 -6.22772442 14.69066711 -6.23004532 13.24571228 C-6.23257265 11.22956367 -6.22804052 9.21340988 -6.22314453 7.19726562 C-6.22234894 6.04778442 -6.22155334 4.89830322 -6.22073364 3.71398926 C-5.99791304 -0.81525054 -4.03741471 0.00478367 0 0 Z " transform="translate(319.09375,158.8671875)" style="fill: #FC0202;"/><path d="M0 0 C1.02996094 -0.00128906 2.05992187 -0.00257813 3.12109375 -0.00390625 C4.74724609 0.00189453 4.74724609 0.00189453 6.40625 0.0078125 C7.49035156 0.00394531 8.57445312 0.00007812 9.69140625 -0.00390625 C10.72136719 -0.00261719 11.75132812 -0.00132812 12.8125 0 C14.24045898 0.00169189 14.24045898 0.00169189 15.69726562 0.00341797 C17.90625 0.1328125 17.90625 0.1328125 18.90625 1.1328125 C19.00560148 3.15231459 19.03424508 5.17532165 19.03564453 7.19726562 C19.03879669 8.49531128 19.04194885 9.79335693 19.04519653 11.1307373 C19.04340675 12.55851271 19.0413558 13.98628781 19.0390625 15.4140625 C19.03973558 16.86755388 19.04070564 18.32104514 19.04196167 19.77453613 C19.04343846 22.82447377 19.0412847 25.87438216 19.03662109 28.92431641 C19.0309238 32.84211809 19.03420291 36.75985128 19.04019356 40.67765045 C19.04379969 43.68012004 19.04266035 46.68257327 19.04006577 49.68504333 C19.03939664 51.12999988 19.04022442 52.57495789 19.04254532 54.01991272 C19.04507265 56.03606133 19.04054052 58.05221512 19.03564453 60.06835938 C19.03484894 61.21784058 19.03405334 62.36732178 19.03323364 63.55163574 C18.90625 66.1328125 18.90625 66.1328125 17.90625 67.1328125 C16.21066274 67.23213403 14.51099253 67.26361257 12.8125 67.265625 C11.78253906 67.26691406 10.75257813 67.26820313 9.69140625 67.26953125 C8.06525391 67.26373047 8.06525391 67.26373047 6.40625 67.2578125 C5.32214844 67.26167969 4.23804688 67.26554687 3.12109375 67.26953125 C2.09113281 67.26824219 1.06117188 67.26695312 0 67.265625 C-0.95197266 67.26449707 -1.90394531 67.26336914 -2.88476562 67.26220703 C-5.09375 67.1328125 -5.09375 67.1328125 -6.09375 66.1328125 C-6.19310148 64.11331041 -6.22174508 62.09030335 -6.22314453 60.06835938 C-6.22629669 58.77031372 -6.22944885 57.47226807 -6.23269653 56.1348877 C-6.23090675 54.70711229 -6.2288558 53.27933719 -6.2265625 51.8515625 C-6.22723558 50.39807112 -6.22820564 48.94457986 -6.22946167 47.49108887 C-6.23093846 44.44115123 -6.2287847 41.39124284 -6.22412109 38.34130859 C-6.2184238 34.42350691 -6.22170291 30.50577372 -6.22769356 26.58797455 C-6.23129969 23.58550496 -6.23016035 20.58305173 -6.22756577 17.58058167 C-6.22689664 16.13562512 -6.22772442 14.69066711 -6.23004532 13.24571228 C-6.23257265 11.22956367 -6.22804052 9.21340988 -6.22314453 7.19726562 C-6.22234894 6.04778442 -6.22155334 4.89830322 -6.22073364 3.71398926 C-5.99791304 -0.81525054 -4.03741471 0.00478367 0 0 Z " transform="translate(188.09375,158.8671875)" style="fill: #FB0202;"/></svg>