<svg id="svg" version="1.1" xmlns="http://www.w3.org/2000/svg" style="display: block;" viewBox="0 0 512 512"><path d="M0 0 C168.96 0 337.92 0 512 0 C512 168.96 512 337.92 512 512 C343.04 512 174.08 512 0 512 C0 343.04 0 174.08 0 0 Z " transform="translate(0,0)" style="fill: #FEFEFE;"/><path d="M0 0 C0.63244629 0.30663574 1.26489258 0.61327148 1.91650391 0.92919922 C17.2585956 8.47314387 30.34317216 18.5842015 43 30 C43.74894531 30.67546875 44.49789063 31.3509375 45.26953125 32.046875 C51.57601665 38.05794459 56.82135304 45.02040414 62 52 C62.63856934 52.85609863 62.63856934 52.85609863 63.29003906 53.72949219 C75.44079354 70.26933859 83.68861482 89.24888129 89 109 C89.31453125 110.12148437 89.6290625 111.24296875 89.953125 112.3984375 C106.46256566 176.65577028 69.82572234 243.29534894 38.54394531 297.32226562 C37.05232324 299.90925343 35.58110678 302.50662886 34.1171875 305.109375 C17.54171516 334.52304651 -0.59836422 362.97277931 -19.3125 391.0625 C-19.76491058 391.74170502 -20.21732117 392.42091003 -20.68344116 393.12069702 C-29.43010349 406.23939642 -38.29799212 419.2761521 -47.4375 432.125 C-48.41613753 433.50205518 -49.39401782 434.87964887 -50.37109375 436.2578125 C-50.78286865 436.8367627 -51.19464355 437.41571289 -51.61889648 438.01220703 C-53.45072496 440.64871886 -55.21917995 443.32876992 -57 446 C-23.01 446.33 10.98 446.66 46 447 C46 452.28 46 457.56 46 463 C-33.2 463 -112.4 463 -194 463 C-194 457.72 -194 452.44 -194 447 C-143.015 446.505 -143.015 446.505 -91 446 C-97.78186664 436.08804106 -104.51015885 426.26167464 -111.50683594 416.52587891 C-116.37409422 409.69110361 -120.98256911 402.67580067 -125.625 395.6875 C-126.14779541 394.90175598 -126.67059082 394.11601196 -127.20922852 393.30645752 C-136.30001254 379.63882667 -145.27871211 365.90728673 -154 352 C-154.98057373 350.43644775 -154.98057373 350.43644775 -155.98095703 348.84130859 C-166.02702625 332.77196254 -175.64849743 316.48233911 -185 300 C-185.46067871 299.19191895 -185.92135742 298.38383789 -186.39599609 297.55126953 C-218.69535957 240.80110191 -253.9742033 176.41598735 -237.25 109.375 C-228.86781117 80.4925516 -215.07045199 56.25234227 -195 34 C-193.98679687 32.87658203 -193.98679687 32.87658203 -192.953125 31.73046875 C-186.94205541 25.42398335 -179.97959586 20.17864696 -173 15 C-172.42926758 14.57428711 -171.85853516 14.14857422 -171.27050781 13.70996094 C-150.64954987 -1.43892201 -126.19422403 -10.99544439 -101 -15 C-99.71351563 -15.20496094 -98.42703125 -15.40992187 -97.1015625 -15.62109375 C-63.8037569 -20.44674631 -30.16386357 -14.71313294 0 0 Z " transform="translate(330,33)" style="fill: #FD494B;"/><path d="M0 0 C1.02287109 0.24145752 1.02287109 0.24145752 2.06640625 0.48779297 C24.50625265 5.94570888 43.39650325 17.08373408 60 33 C60.81984375 33.75667969 61.6396875 34.51335937 62.484375 35.29296875 C84.09933261 55.8674548 98.07430362 86.76228272 99.3125 116.59765625 C99.87491837 143.85729818 94.69765306 177.75551809 75.4831543 198.75 C67.07099411 208.04346354 66.69507605 215.62850366 67.125 227.8125 C67.17924394 230.28229431 67.21854794 232.75078312 67.23605347 235.22111511 C67.25008055 236.74309336 67.28612318 238.26510559 67.34915161 239.7858429 C67.45814772 245.84570297 65.75213581 251.01366958 61.58718872 255.53303528 C56.22607388 260.25165547 51.54605765 261.47877518 44.5625 261.3125 C38.96212739 260.62952773 35.25010979 258.16676914 31.1875 254.375 C28.19605267 250.4537785 27.1478705 245.72213393 26 241 C24.74123047 241.56267578 24.74123047 241.56267578 23.45703125 242.13671875 C-8.2442847 255.6259175 -42.62109898 256.80707129 -75 245 C-78.0646969 243.75971797 -81.02041793 242.43658421 -84 241 C-84.15855469 241.65226563 -84.31710938 242.30453125 -84.48046875 242.9765625 C-86.48363782 250.48014609 -88.74324898 255.34285425 -95.6875 259.375 C-101.10125019 261.80150197 -106.57030147 262.06542119 -112.23828125 260.3046875 C-117.81735864 257.80408407 -121.30309257 254.2851332 -124.12451172 248.82299805 C-125.27456905 245.11465646 -125.20192445 241.60724832 -125.1328125 237.76953125 C-125.1336196 236.1451804 -125.13628352 234.52082962 -125.140625 232.89648438 C-125.13866829 230.35936882 -125.12521929 227.82456224 -125.07910156 225.2878418 C-124.66870912 213.48801183 -124.66870912 213.48801183 -129.796875 203.21875 C-131.1793657 201.79425841 -132.57841735 200.38548171 -134 199 C-153.07768683 173.3556923 -160.35326657 139.35159399 -156.64257812 107.97802734 C-155.50029045 100.59250295 -153.88553381 93.43243646 -151.390625 86.38671875 C-150.06204085 82.51304591 -149.64282182 79.05281218 -149.5625 74.9375 C-149.19024095 68.29410772 -148.22713429 63.36556364 -143.54296875 58.48046875 C-141.52066099 56.70390978 -139.53855377 55.22511547 -137.046875 54.18359375 C-134.2744635 52.58046267 -133.0466191 50.5767483 -131.25 47.9375 C-112.72942835 21.70002349 -84.17325798 5.56752073 -53.22265625 -1.45703125 C-35.67034988 -4.41432893 -17.3019722 -4.21254497 0 0 Z " transform="translate(285,59)" style="fill: #010101;"/><path d="M0 0 C0.63244629 0.30663574 1.26489258 0.61327148 1.91650391 0.92919922 C17.2585956 8.47314387 30.34317216 18.5842015 43 30 C43.74894531 30.67546875 44.49789063 31.3509375 45.26953125 32.046875 C51.57601665 38.05794459 56.82135304 45.02040414 62 52 C62.63856934 52.85609863 62.63856934 52.85609863 63.29003906 53.72949219 C75.44079354 70.26933859 83.68861482 89.24888129 89 109 C89.31453125 110.12148437 89.6290625 111.24296875 89.953125 112.3984375 C106.46256566 176.65577028 69.82572234 243.29534894 38.54394531 297.32226562 C37.05232324 299.90925343 35.58110678 302.50662886 34.1171875 305.109375 C17.54171516 334.52304651 -0.59836422 362.97277931 -19.3125 391.0625 C-19.76491058 391.74170502 -20.21732117 392.42091003 -20.68344116 393.12069702 C-29.43010349 406.23939642 -38.29799212 419.2761521 -47.4375 432.125 C-48.41613753 433.50205518 -49.39401782 434.87964887 -50.37109375 436.2578125 C-50.78286865 436.8367627 -51.19464355 437.41571289 -51.61889648 438.01220703 C-53.45072496 440.64871886 -55.21917995 443.32876992 -57 446 C-23.01 446.33 10.98 446.66 46 447 C46 452.28 46 457.56 46 463 C-33.2 463 -112.4 463 -194 463 C-194 457.72 -194 452.44 -194 447 C-143.015 446.505 -143.015 446.505 -91 446 C-97.78186664 436.08804106 -104.51015885 426.26167464 -111.50683594 416.52587891 C-116.37409422 409.69110361 -120.98256911 402.67580067 -125.625 395.6875 C-126.14779541 394.90175598 -126.67059082 394.11601196 -127.20922852 393.30645752 C-136.30001254 379.63882667 -145.27871211 365.90728673 -154 352 C-154.98057373 350.43644775 -154.98057373 350.43644775 -155.98095703 348.84130859 C-166.02702625 332.77196254 -175.64849743 316.48233911 -185 300 C-185.46067871 299.19191895 -185.92135742 298.38383789 -186.39599609 297.55126953 C-218.69535957 240.80110191 -253.9742033 176.41598735 -237.25 109.375 C-228.86781117 80.4925516 -215.07045199 56.25234227 -195 34 C-193.98679687 32.87658203 -193.98679687 32.87658203 -192.953125 31.73046875 C-186.94205541 25.42398335 -179.97959586 20.17864696 -173 15 C-172.42926758 14.57428711 -171.85853516 14.14857422 -171.27050781 13.70996094 C-150.64954987 -1.43892201 -126.19422403 -10.99544439 -101 -15 C-99.71351563 -15.20496094 -98.42703125 -15.40992187 -97.1015625 -15.62109375 C-63.8037569 -20.44674631 -30.16386357 -14.71313294 0 0 Z M-188.37792969 50.23876953 C-214.76185981 78.88622165 -227.29808212 118.04269793 -226.10986328 156.50683594 C-224.92132608 183.47870685 -212.33260456 210.94943461 -201 235 C-200.51917969 236.03560059 -200.03835937 237.07120117 -199.54296875 238.13818359 C-192.59706695 253.08607583 -185.0899441 267.64182981 -177 282 C-176.40203613 283.06557129 -175.80407227 284.13114258 -175.18798828 285.22900391 C-165.16762828 303.05069114 -154.75349979 320.61136204 -144 338 C-143.4529541 338.88623047 -142.9059082 339.77246094 -142.34228516 340.68554688 C-133.84829274 354.38570823 -124.87484676 367.77465857 -115.9375 381.1875 C-115.34657562 382.07447571 -114.75565125 382.96145142 -114.14682007 383.87530518 C-98.30172203 407.7138324 -98.30172203 407.7138324 -81.75 431.0625 C-80.66016929 432.55244339 -79.57156036 434.0432815 -78.484375 435.53515625 C-78.02772461 436.157854 -77.57107422 436.78055176 -77.10058594 437.42211914 C-76 439 -76 439 -75 441 C-74.34 441 -73.68 441 -73 441 C-71.64713857 439.42214795 -71.64713857 439.42214795 -70.3125 437.3359375 C-69.77753906 436.541875 -69.24257813 435.7478125 -68.69140625 434.9296875 C-68.13324219 434.08664062 -67.57507813 433.24359375 -67 432.375 C-63.20745817 426.70009633 -59.35757069 421.08194115 -55.36328125 415.546875 C-49.07688952 406.80960747 -43.14005401 397.84142508 -37.1875 388.875 C-36.02388443 387.12513614 -34.86022855 385.37529909 -33.6965332 383.62548828 C-15.68878606 356.53001669 1.54830682 329.07078291 18 301 C18.52416504 300.10909668 19.04833008 299.21819336 19.58837891 298.30029297 C71.14817404 211.0017867 71.14817404 211.0017867 73.74609375 112.86328125 C62.72786124 72.70279025 36.64915171 38.71697572 0.50097656 17.97705078 C-63.46544485 -17.39009221 -139.13989173 -1.82121131 -188.37792969 50.23876953 Z " transform="translate(330,33)" style="fill: #020101;"/><path d="M0 0 C-0.60815787 3.57252945 -1.61838659 6.60919383 -3.03125 9.9375 C-5.51031034 16.63814861 -5.59176339 22.918925 -5.5 30 C-5.51546875 31.19367188 -5.5309375 32.38734375 -5.546875 33.6171875 C-5.50287246 43.67176789 -3.93185211 52.86226932 3.3125 60.3125 C4.09496094 61.12847656 4.87742187 61.94445312 5.68359375 62.78515625 C7.68914354 64.702773 9.72798914 66.49501236 11.875 68.25 C15.96215766 71.6354183 17.56855497 74.99966396 18.6875 80.1875 C16.98059266 89.65307706 8.14843732 98.07366649 0.6796875 103.76953125 C-14.21474852 113.97333145 -32.33171579 118.656619 -50.25488281 115.61767578 C-66.86398237 111.80268986 -81.71532396 102.05356845 -91.75 88.25 C-94.0947893 84.33274072 -94.92024748 81.60123738 -94 77 C-91.48251911 70.57560887 -86.36876586 66.51179697 -81.31787109 62.07836914 C-77.11629254 58.31032843 -74.95843793 55.25217446 -73 50 C-72.65018066 49.16259277 -72.30036133 48.32518555 -71.93994141 47.46240234 C-70.6214077 42.60540365 -70.64276247 37.92679797 -70.5859375 32.9140625 C-70.56657135 31.85714203 -70.5472052 30.80022156 -70.5272522 29.71127319 C-70.46767086 26.34926316 -70.42115658 22.98721849 -70.375 19.625 C-70.33680052 17.33982916 -70.29774764 15.05467242 -70.2578125 12.76953125 C-70.16198698 7.179813 -70.07687711 1.59000924 -70 -4 C-68.2719565 -4.79800958 -66.54251255 -5.59298693 -64.8125 -6.38671875 C-63.84957031 -6.82975342 -62.88664062 -7.27278809 -61.89453125 -7.72924805 C-41.05460143 -16.87835691 -18.41788345 -12.31407622 0 0 Z " transform="translate(294,132)" style="fill: #009EC4;"/><path d="M0 0 C0.67804688 0.19335938 1.35609375 0.38671875 2.0546875 0.5859375 C17.93417582 5.1632989 32.60308018 11.900185 45 23 C46.32837891 24.13308594 46.32837891 24.13308594 47.68359375 25.2890625 C52.23856925 29.24243746 55.77292681 32.85731258 59 38 C57.82824219 37.95359375 56.65648437 37.9071875 55.44921875 37.859375 C45.64228737 37.58771485 36.33690197 37.40948833 28.015625 43.4375 C25.87043874 44.92672021 24.61207257 45.71798862 22 46 C18.56318644 44.40777796 15.53620484 42.37865357 12.42578125 40.2421875 C7.3584435 36.79875674 1.8069385 34.85822032 -4 33 C-4.99128906 32.6803125 -5.98257813 32.360625 -7.00390625 32.03125 C-24.91917342 27.08910733 -44.56573961 29.14257408 -61.125 37.375 C-66.56849147 40.07313704 -66.56849147 40.07313704 -70.6875 39.375 C-71.780625 38.92125 -72.87375 38.4675 -74 38 C-78.90118522 37.47205883 -82.79831066 37.39915533 -87.25 39.625 C-90 41 -90 41 -93.25 40.25 C-94.8449466 39.52502427 -96.43297876 38.78351062 -98 38 C-104.19016355 37.42106384 -108.52728138 37.8531868 -114 41 C-114.66 40.67 -115.32 40.34 -116 40 C-87.19651414 7.41733337 -44.01165993 -13.20349798 0 0 Z " transform="translate(283,75)" style="fill: #5FCAE6;"/><path d="M0 0 C9.05460147 4.68341456 14.06827195 10.89231584 17.25 20.4375 C17.53497103 24.32843555 17.52769747 28.22479637 17.5625 32.125 C17.59150391 33.18912109 17.62050781 34.25324219 17.65039062 35.34960938 C17.71008841 42.78427924 16.9771607 48.43370198 11.78295898 54.01342773 C10.17167299 55.51052227 8.5104615 56.91484672 6.8125 58.3125 C-0.04928526 64.28751095 -4.29550655 70.28356139 -5.75 79.4375 C-5.90591779 82.4614885 -5.91425912 85.4829353 -5.92358398 88.51049805 C-5.930271 89.41509766 -5.93695801 90.31969727 -5.94384766 91.25170898 C-5.95786725 93.21053933 -5.96977106 95.16938572 -5.97979546 97.12824059 C-5.99623114 100.22510551 -6.01946662 103.32185034 -6.04469299 106.4186554 C-6.11542342 115.22150692 -6.17575901 124.02440519 -6.22680664 132.82739258 C-6.25852332 138.2148512 -6.29976986 143.60216762 -6.34700203 148.98951149 C-6.36305443 151.04486358 -6.37536095 153.10024837 -6.38390923 155.15564537 C-6.3960071 158.02147338 -6.42012987 160.8869638 -6.44702148 163.75268555 C-6.44761063 164.60725845 -6.44819977 165.46183136 -6.44880676 166.34230042 C-6.52209382 172.20959382 -6.52209382 172.20959382 -8.75 174.4375 C-13.30555556 173.88194444 -13.30555556 173.88194444 -14.75 172.4375 C-14.85931927 169.59931991 -14.90423471 166.78458523 -14.90771484 163.94555664 C-14.91533592 162.6088089 -14.91533592 162.6088089 -14.92311096 161.24505615 C-14.93384256 159.30144814 -14.9424517 157.35782755 -14.94923019 155.41420174 C-14.96099629 152.33225646 -14.98044714 149.25045277 -15.00234985 146.16856384 C-15.06401484 137.40270756 -15.11786959 128.63686219 -15.15136719 119.87084961 C-15.17239151 114.51385433 -15.2077673 109.15711116 -15.25212479 103.80026054 C-15.26623517 101.76268942 -15.27499595 99.72507362 -15.27817917 97.68745613 C-15.28312452 94.82270374 -15.30637868 91.95861099 -15.33349609 89.09399414 C-15.33048996 88.26189926 -15.32748383 87.42980438 -15.3243866 86.57249451 C-15.45998492 76.85680966 -18.02452277 68.56731453 -24.75 61.4375 C-27.54304286 58.90817792 -30.36395572 56.43613432 -33.26171875 54.02734375 C-39.40362543 47.634747 -39.2448225 41.01496285 -39.1875 32.5625 C-39.20748047 31.52480469 -39.22746094 30.48710937 -39.24804688 29.41796875 C-39.24179486 19.50226792 -36.41130452 12.43852343 -29.6875 5.1640625 C-21.73572147 -1.9219982 -9.89705325 -4.03468721 0 0 Z " transform="translate(342.75,129.5625)" style="fill: #CBDFE7;"/><path d="M0 0 C3.08176193 2.05226739 6.16017266 4.10839772 9.2265625 6.18359375 C27.6002703 18.4632117 48.29951836 24.39921037 70.4140625 20.2734375 C85.71092998 16.91291199 99.18079487 10.26404656 111 0 C111.33 0 111.66 0 112 0 C112 12.87 112 25.74 112 39 C101.08632738 44.45683631 91.60238099 48.97701677 80 52 C79.06671875 52.24621094 78.1334375 52.49242187 77.171875 52.74609375 C53.9507204 57.66870693 27.10008407 53.81321819 6 43 C4.94329102 42.48727539 3.88658203 41.97455078 2.79785156 41.44628906 C-0.1866777 38.83677918 -0.41159033 38.62671441 -0.68115234 34.96582031 C-0.68020618 33.33627971 -0.64651693 31.70653945 -0.5859375 30.078125 C-0.57744781 29.21813904 -0.56895813 28.35815308 -0.56021118 27.47210693 C-0.52667054 24.73012038 -0.4513951 21.99109462 -0.375 19.25 C-0.34490102 17.38936545 -0.31752509 15.52868471 -0.29296875 13.66796875 C-0.2268776 9.11084148 -0.1233553 4.55592234 0 0 Z " transform="translate(200,242)" style="fill: #60CBE7;"/><path d="M0 0 C4.55555556 0.55555556 4.55555556 0.55555556 6 2 C6.13565127 4.90858452 6.21065577 7.79672368 6.24609375 10.70703125 C6.27903898 12.50846828 6.31225051 14.30990045 6.34570312 16.11132812 C6.39309498 18.96196056 6.43750102 21.81257426 6.47680664 24.66333008 C6.51654641 27.40727818 6.56809588 30.1508117 6.62109375 32.89453125 C6.6295079 33.74570023 6.63792206 34.5968692 6.64659119 35.47383118 C6.66323318 36.27113144 6.67987518 37.0684317 6.69702148 37.88989258 C6.70732895 38.58858963 6.71763641 39.28728668 6.72825623 40.00715637 C7.05533821 42.40582494 7.66140716 43.98110131 9 46 C12.46821241 46.89916618 14.92654257 47.33898656 18.375 46.25 C20.309697 45.00281178 20.309697 45.00281178 21 42 C21.13067962 39.00319108 21.20941371 36.02542842 21.24609375 33.02734375 C21.27901478 31.22330212 21.31222671 29.41926578 21.34570312 27.61523438 C21.39323755 24.76883377 21.43770663 21.92245723 21.47680664 19.07592773 C21.51639157 16.33034568 21.56794883 13.58519201 21.62109375 10.83984375 C21.6295079 9.98462631 21.63792206 9.12940887 21.64659119 8.24827576 C21.7732805 2.2267195 21.7732805 2.2267195 24 0 C28.55555556 0.55555556 28.55555556 0.55555556 30 2 C30.13565127 4.90858452 30.21065577 7.79672368 30.24609375 10.70703125 C30.27903898 12.50846828 30.31225051 14.30990045 30.34570312 16.11132812 C30.39309498 18.96196056 30.43750102 21.81257426 30.47680664 24.66333008 C30.51654641 27.40727818 30.56809588 30.1508117 30.62109375 32.89453125 C30.6295079 33.74570023 30.63792206 34.5968692 30.64659119 35.47383118 C30.67155418 36.66978157 30.67155418 36.66978157 30.69702148 37.88989258 C30.70732895 38.58858963 30.71763641 39.28728668 30.72825623 40.00715637 C31.05533821 42.40582494 31.66140716 43.98110131 33 46 C36.46821241 46.89916618 38.92654257 47.33898656 42.375 46.25 C44.309697 45.00281178 44.309697 45.00281178 45 42 C45.13067962 39.00319108 45.20941371 36.02542842 45.24609375 33.02734375 C45.27901478 31.22330212 45.31222671 29.41926578 45.34570312 27.61523438 C45.39323755 24.76883377 45.43770663 21.92245723 45.47680664 19.07592773 C45.51639157 16.33034568 45.56794883 13.58519201 45.62109375 10.83984375 C45.6295079 9.98462631 45.63792206 9.12940887 45.64659119 8.24827576 C45.7732805 2.2267195 45.7732805 2.2267195 48 0 C52.55555556 0.55555556 52.55555556 0.55555556 54 2 C54.11340795 3.33837848 54.15949728 4.68257411 54.17700195 6.02563477 C54.19625481 7.3081588 54.19625481 7.3081588 54.21589661 8.61659241 C54.22328354 9.54878098 54.23067047 10.48096954 54.23828125 11.44140625 C54.246353 12.39764389 54.25442474 13.35388153 54.26274109 14.33909607 C54.27660551 16.37098364 54.28731705 18.40289474 54.29516602 20.43481445 C54.31229418 23.52536225 54.3561487 26.61481684 54.40039062 29.70507812 C54.4105247 31.67967963 54.41903856 33.65429025 54.42578125 35.62890625 C54.44328934 36.5469252 54.46079742 37.46494415 54.47883606 38.41078186 C54.45638382 45.14193095 53.15368972 50.64397437 48.43936157 55.6607666 C46.86054859 57.12992952 45.22746723 58.50450549 43.5625 59.875 C36.70071474 65.85001095 32.45449345 71.84606139 31 81 C30.84408221 84.0239885 30.83574088 87.0454353 30.82641602 90.07299805 C30.819729 90.97759766 30.81304199 91.88219727 30.80615234 92.81420898 C30.79213275 94.77303933 30.78022894 96.73188572 30.77020454 98.69074059 C30.75376886 101.78760551 30.73053338 104.88435034 30.70530701 107.9811554 C30.63457658 116.78400692 30.57424099 125.58690519 30.52319336 134.38989258 C30.49147668 139.7773512 30.45023014 145.16466762 30.40299797 150.55201149 C30.38694557 152.60736358 30.37463905 154.66274837 30.36609077 156.71814537 C30.3539929 159.58397338 30.32987013 162.4494638 30.30297852 165.31518555 C30.30238937 166.16975845 30.30180023 167.02433136 30.30119324 167.90480042 C30.22790618 173.77209382 30.22790618 173.77209382 28 176 C23.44444444 175.44444444 23.44444444 175.44444444 22 174 C21.89068073 171.16181991 21.84576529 168.34708523 21.84228516 165.50805664 C21.83466408 164.1713089 21.83466408 164.1713089 21.82688904 162.80755615 C21.81615744 160.86394814 21.8075483 158.92032755 21.80076981 156.97670174 C21.78900371 153.89475646 21.76955286 150.81295277 21.74765015 147.73106384 C21.68598516 138.96520756 21.63213041 130.19936219 21.59863281 121.43334961 C21.57760849 116.07635433 21.5422327 110.71961116 21.49787521 105.36276054 C21.48376483 103.32518942 21.47500405 101.28757362 21.47182083 99.24995613 C21.46687548 96.38520374 21.44362132 93.52111099 21.41650391 90.65649414 C21.41951004 89.82439926 21.42251617 88.99230438 21.4256134 88.13499451 C21.29001508 78.41930966 18.72547723 70.12981453 12 63 C9.20695714 60.47067792 6.38604428 57.99863432 3.48828125 55.58984375 C-2.21268641 49.65618353 -2.4417319 43.59884812 -2.36328125 35.76171875 C-2.36377975 34.79974075 -2.36427826 33.83776276 -2.36479187 32.84663391 C-2.36246193 30.82538778 -2.35279761 28.80413816 -2.33618164 26.78295898 C-2.31244197 23.67991471 -2.31564709 20.57772229 -2.32226562 17.47460938 C-2.31669321 15.50780736 -2.30958609 13.54100895 -2.30078125 11.57421875 C-2.30169266 10.64405441 -2.30260406 9.71389008 -2.30354309 8.75553894 C-2.29401108 7.89737076 -2.28447906 7.03920258 -2.2746582 6.1550293 C-2.27005081 5.39892868 -2.26544342 4.64282806 -2.26069641 3.86381531 C-2 2 -2 2 0 0 Z " transform="translate(154,128)" style="fill: #CCDFE7;"/><path d="M0 0 C4.67944401 2.65769639 8.72734315 7.12635127 10.30786133 12.34033203 C11.12135586 16.31392266 10.97666658 20.33248537 11 24.375 C11.020625 25.26058594 11.04125 26.14617187 11.0625 27.05859375 C11.09364416 32.2830268 10.77258222 36.03213709 7.75 40.5 C1.92160106 45.43588309 -4.83619042 45.84755393 -12.13671875 45.78515625 C-17.90283375 45.25701774 -22.32203981 43.09056716 -26.75 39.4375 C-31.55658131 33.22899914 -29.90641194 21.91837511 -29.25 14.5 C-27.78917067 8.14241115 -24.89964788 4.53956138 -19.5625 0.875 C-12.99174763 -2.56170852 -6.85149642 -2.89169621 0 0 Z " transform="translate(341.25,137.5)" style="fill: #BFD5E1;"/><path d="M0 0 C0.49396552 16.48381245 -6.39528527 32.66430373 -14 47 C-14.33 47 -14.66 47 -15 47 C-15.12452065 42.58928701 -15.21476527 38.17953143 -15.2746582 33.76757812 C-15.29965007 32.27000077 -15.33365627 30.77254349 -15.37719727 29.27539062 C-15.80712382 14.10151232 -15.80712382 14.10151232 -11.40112305 8.45507812 C-9.45627854 6.43534067 -7.52271257 4.64733528 -5.25 3 C-4.47140625 2.4225 -3.6928125 1.845 -2.890625 1.25 C-1 0 -1 0 0 0 Z " transform="translate(367,194)" style="fill: #5EC8E3;"/><path d="M0 0 C3.09320765 1.68720417 5.89115082 3.60104238 8.625 5.8125 C9.19476563 6.27269531 9.76453125 6.73289063 10.3515625 7.20703125 C14.64722392 11.8793265 15.36717559 16.40203401 15.29296875 22.5859375 C15.28872391 23.28772125 15.28447906 23.989505 15.28010559 24.71255493 C15.26343599 26.9337756 15.22580872 29.15405788 15.1875 31.375 C15.17243788 32.88930973 15.15875216 34.40363381 15.14648438 35.91796875 C15.11357183 39.61227932 15.06187259 43.30604793 15 47 C5.26289271 34.34749022 -0.27270511 15.81689633 0 0 Z " transform="translate(145,194)" style="fill: #5EC8E3;"/></svg>